<?xml version="1.0" standalone="no"?>
<!DOCTYPE svg PUBLIC "-//W3C//DTD SVG 20010904//EN"
 "http://www.w3.org/TR/2001/REC-SVG-20010904/DTD/svg10.dtd">
<svg version="1.0" xmlns="http://www.w3.org/2000/svg"
 width="800.000000pt" height="800.000000pt" viewBox="0 0 800.000000 800.000000"
 preserveAspectRatio="xMidYMid meet">

<g transform="translate(0.000000,800.000000) scale(0.100000,-0.100000)"
fill="#000000" stroke="none">
<path d="M3883 6162 c-29 -10 -71 -32 -94 -47 -23 -16 -869 -859 -1880 -1873
-2077 -2083 -1904 -1896 -1904 -2062 1 -72 5 -95 29 -148 38 -81 122 -162 203
-192 76 -29 203 -25 278 9 42 18 319 290 1767 1739 l1718 1717 1707 -1706
c940 -938 1724 -1715 1743 -1727 187 -109 425 -33 518 166 23 49 27 70 27 147
0 170 179 -23 -1922 2076 -2075 2074 -1899 1910 -2057 1916 -60 3 -94 -1 -133
-15z"/>
</g>
</svg>
