<?xml version="1.0" standalone="no"?>
<!DOCTYPE svg PUBLIC "-//W3C//DTD SVG 20010904//EN"
 "http://www.w3.org/TR/2001/REC-SVG-20010904/DTD/svg10.dtd">
<svg version="1.0" xmlns="http://www.w3.org/2000/svg"
 width="1112.000000pt" height="1112.000000pt" viewBox="0 0 1112.000000 1112.000000"
 preserveAspectRatio="xMidYMid meet">

<g transform="translate(0.000000,1112.000000) scale(0.100000,-0.100000)"
fill="#000000" stroke="none">
<path d="M10459 8572 c-37 -10 -83 -31 -104 -46 -91 -69 -850 -823 -2749
-2729 -1122 -1126 -2044 -2047 -2049 -2047 -5 0 -689 678 -1521 1508 -2362
2355 -3263 3241 -3316 3265 -109 49 -235 60 -345 32 -139 -37 -260 -137 -327
-271 -41 -83 -41 -86 -45 -211 l-5 -128 36 -59 c94 -153 348 -412 2725 -2780
2274 -2266 2499 -2483 2635 -2553 47 -24 57 -25 170 -21 112 4 127 6 196 38
70 32 94 53 375 329 398 391 3740 3747 4239 4256 455 465 608 631 678 735 l50
75 -4 126 c-4 120 -7 131 -40 201 -42 88 -131 188 -209 235 -105 63 -256 80
-390 45z"/>
</g>
</svg>
