<?xml version="1.0" standalone="no"?>
<!DOCTYPE svg PUBLIC "-//W3C//DTD SVG 20010904//EN"
 "http://www.w3.org/TR/2001/REC-SVG-20010904/DTD/svg10.dtd">
<svg version="1.0" xmlns="http://www.w3.org/2000/svg"
 width="512.000000pt" height="512.000000pt" viewBox="0 0 512.000000 512.000000"
 preserveAspectRatio="xMidYMid meet">

<g transform="translate(0.000000,512.000000) scale(0.100000,-0.100000)"
fill="#000000" stroke="none">
<path d="M2285 4020 c-804 -4 -1055 -8 -1071 -17 -32 -19 -74 -72 -95 -121
-16 -37 -19 -70 -19 -213 l0 -169 60 0 c139 0 223 -43 273 -140 26 -51 28 -62
25 -151 -3 -86 -6 -100 -33 -145 -19 -30 -49 -60 -79 -79 -45 -27 -59 -30
-148 -33 l-98 -4 0 -73 0 -73 97 -4 c107 -5 140 -16 193 -70 51 -51 70 -101
70 -192 0 -98 -14 -145 -58 -196 -52 -62 -101 -82 -210 -88 l-92 -5 0 -68 0
-69 60 0 c139 0 223 -43 273 -140 26 -51 28 -62 25 -151 -3 -86 -6 -100 -33
-145 -19 -30 -49 -60 -79 -79 -45 -27 -59 -30 -148 -33 l-100 -4 4 -181 c3
-172 4 -185 29 -232 14 -27 40 -60 59 -73 l33 -22 1137 2 1137 3 36 27 c98 76
103 107 99 616 l-4 403 -114 -168 c-64 -93 -127 -180 -142 -195 -15 -15 -186
-106 -380 -203 -364 -183 -392 -193 -407 -147 -3 11 1 50 9 88 8 38 33 177 55
309 61 356 69 392 107 491 40 105 36 99 490 794 193 294 359 551 371 570 13
23 23 62 27 114 6 72 5 83 -18 130 -40 81 -166 150 -261 143 -16 -1 -502 -4
-1080 -7z m652 -546 c40 -30 58 -89 41 -139 -7 -21 -26 -48 -41 -59 -28 -21
-38 -21 -547 -24 -435 -2 -525 0 -554 12 -96 40 -83 195 18 225 17 5 260 9
543 8 502 -2 512 -2 540 -23z m-381 -640 c59 -28 81 -102 49 -164 -30 -59 -40
-60 -421 -60 l-346 0 -34 34 c-28 28 -34 42 -34 75 0 23 7 55 15 71 30 58 38
59 403 60 289 0 339 -2 368 -16z"/>
<path d="M3885 3661 c-16 -4 -40 -13 -52 -19 -28 -15 -124 -143 -121 -161 2
-8 102 -77 223 -152 246 -154 233 -151 290 -70 23 33 30 55 33 104 2 34 0 72
-5 85 -11 28 -174 165 -228 191 -49 24 -100 32 -140 22z"/>
<path d="M3587 3313 c-233 -364 -677 -1073 -677 -1081 0 -5 97 -72 216 -147
167 -107 218 -135 224 -124 5 8 177 260 384 562 l375 547 -233 155 c-128 85
-236 155 -240 155 -3 0 -26 -30 -49 -67z"/>
<path d="M903 3345 c-40 -32 -57 -83 -50 -147 7 -54 23 -82 64 -109 24 -16 49
-19 176 -19 166 0 194 8 227 63 27 43 27 131 0 174 -33 56 -61 63 -232 63
-148 0 -154 -1 -185 -25z"/>
<path d="M931 2652 c-50 -25 -74 -63 -78 -124 -5 -65 17 -112 66 -145 31 -21
45 -23 173 -23 158 0 197 11 229 64 27 44 26 140 -1 184 -31 51 -70 62 -222
62 -107 0 -140 -3 -167 -18z"/>
<path d="M2825 2098 c-2 -7 -14 -76 -25 -153 -12 -77 -27 -171 -35 -210 -21
-99 -20 -141 6 -158 26 -19 46 -13 138 39 111 63 355 220 358 231 3 9 -414
263 -431 263 -3 0 -9 -6 -11 -12z"/>
<path d="M912 1957 c-36 -21 -54 -55 -59 -116 -7 -70 15 -124 61 -152 27 -16
52 -19 187 -19 143 0 158 2 183 21 39 31 56 71 56 136 0 63 -21 107 -62 129
-32 18 -334 18 -366 1z"/>
</g>
</svg>
