<?xml version="1.0" standalone="no"?>
<!DOCTYPE svg PUBLIC "-//W3C//DTD SVG 20010904//EN"
 "http://www.w3.org/TR/2001/REC-SVG-20010904/DTD/svg10.dtd">
<svg version="1.0" xmlns="http://www.w3.org/2000/svg"
 width="512.000000pt" height="512.000000pt" viewBox="0 0 512.000000 512.000000"
 preserveAspectRatio="xMidYMid meet">

<g transform="translate(0.000000,512.000000) scale(0.100000,-0.100000)"
fill="#000000" stroke="none">
<path d="M2375 4899 c-438 -34 -863 -195 -1223 -463 -137 -102 -366 -331 -468
-468 -693 -930 -613 -2206 191 -3037 376 -388 833 -619 1380 -697 142 -20 444
-23 580 -5 426 56 798 205 1133 455 137 102 366 331 468 468 386 518 543 1163
438 1798 -28 174 -86 241 -212 248 -56 3 -74 0 -112 -20 -60 -32 -101 -93
-107 -155 -3 -27 2 -92 11 -144 23 -128 31 -379 17 -508 -25 -233 -83 -435
-181 -639 -194 -402 -494 -703 -895 -897 -735 -357 -1612 -209 -2190 370 -579
578 -727 1454 -370 2190 195 402 494 701 897 895 336 162 723 224 1075 173 65
-10 150 -18 190 -18 64 0 76 3 115 30 124 87 125 271 3 357 -85 60 -433 91
-740 67z"/>
<path d="M4206 4898 c-25 -7 -58 -29 -86 -57 -58 -58 -70 -101 -70 -250 l0
-111 -125 0 c-138 0 -178 -10 -228 -58 -83 -79 -90 -219 -14 -300 49 -53 92
-66 234 -70 l131 -4 4 -131 c3 -119 6 -137 28 -177 67 -119 225 -147 327 -57
60 53 73 94 73 240 l0 127 113 0 c150 0 203 16 255 76 96 109 68 264 -59 328
-49 24 -63 26 -181 26 l-128 0 0 129 c0 121 -2 132 -28 182 -47 89 -149 134
-246 107z"/>
<path d="M2303 3821 c-183 -45 -335 -166 -419 -334 -71 -141 -69 -110 -69
-927 0 -817 -2 -786 69 -927 87 -173 251 -299 438 -337 105 -22 371 -22 476 0
233 47 421 226 489 465 17 59 18 118 18 799 0 665 -2 741 -17 797 -65 236
-252 415 -485 467 -104 23 -401 21 -500 -3z m455 -430 c20 -11 49 -32 64 -48
60 -63 58 -39 58 -785 0 -643 -2 -685 -19 -723 -23 -49 -64 -89 -113 -109 -53
-23 -323 -23 -376 0 -49 20 -90 60 -113 109 -17 38 -19 79 -19 725 0 646 2
687 19 725 10 22 31 52 47 66 59 54 77 58 252 59 141 0 168 -3 200 -19z"/>
</g>
</svg>
