<?xml version="1.0" standalone="no"?>
<!DOCTYPE svg PUBLIC "-//W3C//DTD SVG 20010904//EN"
 "http://www.w3.org/TR/2001/REC-SVG-20010904/DTD/svg10.dtd">
<svg version="1.0" xmlns="http://www.w3.org/2000/svg"
 width="512.000000pt" height="512.000000pt" viewBox="0 0 512.000000 512.000000"
 preserveAspectRatio="xMidYMid meet">

<g transform="translate(0.000000,512.000000) scale(0.100000,-0.100000)"
fill="#000000" stroke="none">
<path d="M2375 5108 c-22 -5 -71 -16 -110 -24 -465 -103 -841 -487 -949 -969
-96 -430 37 -884 348 -1190 50 -49 101 -98 114 -108 454 -351 1090 -351 1544
0 13 10 64 59 114 108 391 385 490 990 243 1487 -126 252 -330 456 -584 581
-108 53 -160 69 -383 118 -53 11 -283 10 -337 -3z"/>
<path d="M1171 2663 c-176 -176 -236 -248 -363 -439 -188 -281 -367 -695 -438
-1009 -40 -181 -56 -266 -80 -435 -15 -104 -31 -453 -22 -462 10 -10 108 -45
182 -65 174 -48 222 -60 305 -78 44 -9 91 -21 105 -25 14 -5 68 -16 120 -25
52 -9 113 -20 135 -25 117 -25 353 -60 621 -90 120 -13 1478 -13 1598 0 252
29 472 60 626 90 25 5 86 16 135 25 50 9 106 20 125 25 19 5 121 29 227 55
200 48 379 100 387 114 8 12 -12 373 -24 461 -24 169 -40 254 -80 435 -71 314
-250 728 -438 1009 -127 191 -187 263 -363 439 -140 138 -189 177 -189 149 0
-12 -177 -184 -235 -229 -278 -216 -618 -334 -959 -333 -123 1 -324 29 -426
61 -191 59 -371 152 -525 272 -58 45 -235 217 -235 229 0 28 -49 -11 -189
-149z"/>
</g>
</svg>
